<svg xmlns="http://www.w3.org/2000/svg" viewBox="0 0 64 39" width="64" height="39">
    <style type="text/css">
        .st0{fill:none;stroke:#a5a0a0;stroke-linecap:round;stroke-linejoin:round;stroke-miterlimit:10}
    </style>
    <g>
        <g>
            <path class="st0" d="M20.1,24.7h-2.5c-0.3,0-0.5-0.2-0.5-0.5v-7c0-0.3,0.2-0.5,0.5-0.5h2.5c2.2,0,4,1.8,4,4v0
				C24.2,23,22.4,24.7,20.1,24.7z"/>
            <polyline class="st0" points="36.9,24.7 36.9,16.7 43.5,24.7 43.5,16.7 			"/>
            <path class="st0" d="M45.9,24.7l3.5-7.8c0.2-0.4,0.7-0.4,0.9,0l3.5,7.8"/>
            <path class="st0" d="M56.2,24.7v-7.5c0-0.3,0.2-0.5,0.5-0.5h4.1c1.2,0,2.1,0.9,2.1,2.1v0c0,1.2-0.9,2.1-2.1,2.1h-4.6"/>
            <line class="st0" x1="46.6" y1="23.3" x2="53.2" y2="23.3"/>
            <path class="st0" d="M63.5,24.7c-1.7-0.8-3.1-2.1-3.9-3.8"/>
            <path class="st0" d="M59.6,20.9"/>
            <circle class="st0" cx="30.5" cy="20.7" r="4"/>
        </g>
        <path d="M7.1,26.6c2.9-0.2,5.2-2.6,5.2-5.6c0-3.1-5.6-8.6-5.6-8.6S1.1,17.9,1.1,21s2.5,5.6,5.6,5.6
		C6.8,26.6,7,26.6,7.1,26.6z" style="fill:none;stroke:#ff525a;stroke-width:2;stroke-linecap:round;stroke-linejoin:round;stroke-miterlimit:10"/>
        <path d="M4.8,21.8c0.3,0.7,1,1.2,1.8,1.2c0,0,0.1,0,0.1,0c0.7,0,1.4-0.5,1.7-1.1" style="fill:none;stroke:#ff525a;stroke-linecap:round;stroke-linejoin:round;stroke-miterlimit:10"/>
    </g>
</svg>
